HIERARCHY
ROOT joint_Root
{
  OFFSET 0 0 0
  CHANNELS 6 Xposition Yposition Zposition Zrotation Xrotation Yrotation
  JOINT Hips
  {
    OFFSET 0.847027 93.984 -452.225
    CHANNELS 6 Xposition Yposition Zposition Zrotation Xrotation Yrotation
    JOINT Spine
    {
      OFFSET 15.7357 0 0
      CHANNELS 6 Xposition Yposition Zposition Zrotation Xrotation Yrotation
      JOINT Chest
      {
        OFFSET 8.98455 -0.406207 0
        CHANNELS 6 Xposition Yposition Zposition Zrotation Xrotation Yrotation
        JOINT Neck
        {
          OFFSET 16.3773 0 0
          CHANNELS 6 Xposition Yposition Zposition Zrotation Xrotation Yrotation
          JOINT Head
          {
            OFFSET 6.45672 0 0
            CHANNELS 6 Xposition Yposition Zposition Zrotation Xrotation Yrotation
            End Site
            {
              OFFSET 0 0 0
            }
          }
        }
        JOINT Shoulder_L
        {
          OFFSET 12.9942 -0.242716 4.98039
          CHANNELS 6 Xposition Yposition Zposition Zrotation Xrotation Yrotation
          JOINT UpperArm_L
          {
            OFFSET 5.34809 0 0
            CHANNELS 6 Xposition Yposition Zposition Zrotation Xrotation Yrotation
            JOINT LowerArm_L
            {
              OFFSET 24.3286 1.87007e-05 0
              CHANNELS 6 Xposition Yposition Zposition Zrotation Xrotation Yrotation
              JOINT Hand_L
              {
                OFFSET 22.2916 0 0
                CHANNELS 6 Xposition Yposition Zposition Zrotation Xrotation Yrotation
                End Site
                {
                  OFFSET 0 0 0
                }
              }
            }
          }
        }
        JOINT Shoulder_R
        {
          OFFSET 12.9945 -0.242716 -4.98039
          CHANNELS 6 Xposition Yposition Zposition Zrotation Xrotation Yrotation
          JOINT UpperArm_R
          {
            OFFSET -5.34813 0 0
            CHANNELS 6 Xposition Yposition Zposition Zrotation Xrotation Yrotation
            JOINT LowerArm_R
            {
              OFFSET -24.3289 0.000322201 0
              CHANNELS 6 Xposition Yposition Zposition Zrotation Xrotation Yrotation
              JOINT Hand_R
              {
                OFFSET -22.2915 -0.000108084 0
                CHANNELS 6 Xposition Yposition Zposition Zrotation Xrotation Yrotation
                End Site
                {
                  OFFSET 0 0 0
                }
              }
            }
          }
        }
      }
    }
    JOINT UpperLeg_L
    {
      OFFSET -2.19248 -6.46944 0
      CHANNELS 6 Xposition Yposition Zposition Zrotation Xrotation Yrotation
      JOINT LowerLeg_L
      {
        OFFSET 39.0811 0 -1.23785e-05
        CHANNELS 6 Xposition Yposition Zposition Zrotation Xrotation Yrotation
        JOINT Foot_L
        {
          OFFSET 40.9854 0 -1.26872e-05
          CHANNELS 6 Xposition Yposition Zposition Zrotation Xrotation Yrotation
          JOINT Toes_L
          {
            OFFSET 11.7543 0 0
            CHANNELS 6 Xposition Yposition Zposition Zrotation Xrotation Yrotation
            End Site
            {
              OFFSET 0 0 0
            }
          }
        }
      }
    }
    JOINT UpperLeg_R
    {
      OFFSET -2.19251 6.46944 0
      CHANNELS 6 Xposition Yposition Zposition Zrotation Xrotation Yrotation
      JOINT LowerLeg_R
      {
        OFFSET -39.0811 -0.00228153 -0.0401928
        CHANNELS 6 Xposition Yposition Zposition Zrotation Xrotation Yrotation
        JOINT Foot_R
        {
          OFFSET -40.9854 0 0
          CHANNELS 6 Xposition Yposition Zposition Zrotation Xrotation Yrotation
          JOINT Toes_R
          {
            OFFSET -11.7543 0 0
            CHANNELS 6 Xposition Yposition Zposition Zrotation Xrotation Yrotation
            End Site
            {
              OFFSET 0 0 0
            }
          }
        }
      }
    }
  }
}
MOTION
Frames:	4
Frame Time:	0.0333333
0 0 0 0 0 -0 -144.996 79.4486 -437.305 89.0831 2.6113 -25.4868 15.7357 5.1072e-06 -5.51764e-07 75.1758 81.8304 -73.9878 8.98455 -0.406207 -4.3199e-07 8.08967 -4.15896 2.6686 16.3773 -1.3905e-06 -6.99897e-07 -5.06371 -0.100515 -0.123538 6.45672 -1.25837e-06 -1.02172e-07 -8.99262 3.48154 -0.486837 12.9942 -0.242716 4.98039 -89.7927 -1.15097 -94.8063 5.34809 -7.22636e-06 -6.2814e-07 -57.2193 -1.3301 -42.244 24.3286 1.87007e-05 4.90208e-06 -10.9855 1.72477 -98.8057 22.2916 -9.88446e-07 4.63217e-06 13.3823 5.62033 -12.6477 12.9945 -0.242716 -4.98039 88.961 3.42697 -88.1127 -5.34813 -1.25947e-06 -3.79883e-06 -58.0906 10.6049 38.6115 -24.3289 0.000322201 -8.65921e-06 2.3117 4.40413 -27.7623 -22.2915 -0.000108084 -4.47941e-06 6.01673 5.56427 -9.40775 -2.19248 -6.46944 -1.22533e-07 -176.138 -2.49465 -19.3344 39.0811 -6.73843e-06 -1.23785e-05 0.00693943 0.0157416 50.0176 40.9854 -6.48686e-06 -1.26872e-05 3.01849 6.51629 -87.5995 11.7543 -2.30145e-07 3.05095e-06 0.489095 -1.10516 -34.8099 -2.19251 6.46944 -1.45247e-06 -177.997 3.04251 123.963 -39.0811 -0.00228153 -0.0401928 0.156054 0.0359298 108.138 -40.9854 7.72618e-06 5.99936e-06 -1.831 -6.79235 -47.4874 -11.7543 -5.6619e-06 -5.58687e-06 0.372244 -0.446247 -20.8475 
0 0 0 0 0 -0 -145.477 81.9895 -427.585 86.4888 3.76949 -26.1036 15.7357 5.1072e-06 -5.51765e-07 68.1686 82.451 -65.5833 8.98455 -0.406207 -4.3199e-07 6.40565 -5.62891 5.48342 16.3773 -1.3905e-06 -6.99897e-07 -3.53803 0.906388 -0.491342 6.45672 -1.25837e-06 -1.02172e-07 -6.51203 5.24825 -1.74136 12.9942 -0.242716 4.98039 -89.3429 -3.23088 -93.5011 5.34809 -7.22636e-06 -6.2814e-07 -59.7931 -3.52746 -43.3688 24.3286 1.87007e-05 4.90208e-06 -11.0302 3.20272 -105.996 22.2916 -9.88446e-07 4.63217e-06 12.5477 5.59418 -10.9845 12.9945 -0.242716 -4.98039 90.1684 -0.531144 -87.4164 -5.34813 -1.25947e-06 -3.79883e-06 -59.1094 12.0339 45.4255 -24.3289 0.000322201 -8.65921e-06 2.54688 3.58445 -35.4421 -22.2915 -0.000108084 -4.47941e-06 6.81873 5.58584 -10.514 -2.19248 -6.46944 -1.22534e-07 -172.608 -2.48252 -7.98446 39.0811 -6.73843e-06 -1.23785e-05 0.0108922 0.0119741 33.7497 40.9854 -6.48686e-06 -1.26872e-05 2.05915 7.84262 -71.2374 11.7543 -2.30144e-07 3.05095e-06 0.611849 -1.92383 -47.2703 -2.19251 6.46944 -1.45247e-06 -173.179 1.97467 116.87 -39.0811 -0.00228153 -0.0401928 -0.0011781 -0.0158209 105.357 -40.9854 7.72618e-06 5.99936e-06 0.364767 -14.3156 -55.2202 -11.7543 -5.6619e-06 -5.58687e-06 0.363592 -0.435069 -20.7437 
0 0 0 0 0 -0 -146.014 85.3227 -417.968 85.0284 5.12785 -28.4769 15.7357 5.1072e-06 -5.51765e-07 58.9134 83.1649 -55.129 8.98455 -0.406207 -4.3199e-07 4.21635 -7.16474 7.83246 16.3773 -1.3905e-06 -6.99897e-07 -2.74826 1.69092 -0.735338 6.45672 -1.25837e-06 -1.02172e-07 -4.85463 6.34785 -3.18062 12.9942 -0.242716 4.98039 -89.1258 -3.98455 -92.6143 5.34809 -7.22636e-06 -6.2814e-07 -61.7126 -3.86378 -41.7013 24.3286 1.87007e-05 4.90208e-06 -8.95211 3.62689 -111.887 22.2916 -9.88446e-07 4.63217e-06 11.0043 5.56915 -9.64016 12.9945 -0.242716 -4.98039 91.3258 -4.20968 -87.4982 -5.34813 -1.25947e-06 -3.79883e-06 -61.6801 11.1108 48.9727 -24.3289 0.000322201 -8.65921e-06 3.04244 3.34298 -42.3607 -22.2915 -0.000108084 -4.47941e-06 7.80126 5.60388 -11.5775 -2.19248 -6.46944 -1.22533e-07 -169.68 -4.91918 -2.14072 39.0811 -6.73843e-06 -1.23785e-05 0.0191521 -0.0351285 18.4263 40.9854 -6.48686e-06 -1.26872e-05 -4.02788 10.9374 -39.7368 11.7543 -2.30144e-07 3.05095e-06 0.464406 -3.13649 -65.7124 -2.19251 6.46944 -1.45247e-06 -170.706 1.21891 111.277 -39.0811 -0.00228153 -0.0401928 -0.000101339 -0.0150498 94.9183 -40.9854 7.72618e-06 5.99936e-06 -2.39348 -13.102 -60.1841 -11.7543 -5.6619e-06 -5.58687e-06 0.356376 -0.425769 -20.6571 
0 0 0 0 0 -0 -146.174 88.0397 -408.317 85.9065 4.50407 -28.0893 15.7357 5.1072e-06 -5.51765e-07 56.5881 82.762 -52.6644 8.98455 -0.406207 -4.3199e-07 4.64396 -8.06434 8.17667 16.3773 -1.3905e-06 -6.99897e-07 -2.67367 2.2412 -0.638578 6.45672 -1.25837e-06 -1.02172e-07 -4.54287 7.15094 -4.32875 12.9942 -0.242716 4.98039 -89.1497 -3.89455 -92.6738 5.34809 -7.22636e-06 -6.2814e-07 -63.2668 -2.6829 -37.8434 24.3286 1.87007e-05 4.90207e-06 -8.2998 4.14233 -116.341 22.2916 -9.88446e-07 4.63217e-06 10.6115 5.55887 -9.13302 12.9945 -0.242716 -4.98039 91.8493 -6.12964 -88.175 -5.34813 -1.25947e-06 -3.79883e-06 -63.7866 9.05065 49.3581 -24.3289 0.000322201 -8.65921e-06 2.90733 2.53817 -48.9296 -22.2915 -0.000108084 -4.47941e-06 7.55374 5.61329 -12.175 -2.19248 -6.46944 -1.22533e-07 -168.155 -7.43562 6.01317 39.0811 -6.73843e-06 -1.23785e-05 0.0319113 -0.324735 5.47144 40.9854 -6.48686e-06 -1.26872e-05 -19.328 6.38218 -15.202 11.7543 -2.30145e-07 3.05095e-06 0.534891 -1.29954 -37.8099 -2.19251 6.46944 -1.45247e-06 -171.978 1.3936 111.368 -39.0811 -0.00228153 -0.0401928 0.0620288 -0.0202229 80.4156 -40.9854 7.72618e-06 5.99936e-06 -4.27642 -5.64074 -62.6884 -11.7543 -5.6619e-06 -5.58687e-06 0.35871 -0.42878 -20.6851 
